<svg width="267" height="120" viewBox="0 0 267 120" fill="none" xmlns="http://www.w3.org/2000/svg">
<rect x="88" width="43" height="44" rx="4" fill="#EAE2CB"/>
<rect x="139" width="43" height="44" rx="4" fill="#E6E6E6"/>
<rect x="139" y="48" width="43" height="44" rx="4" fill="#EAE2CB"/>
<rect x="88" y="48" width="43" height="44" rx="4" fill="#E6E6E6"/>
<path d="M8.463 76.14L16.887 71.265C17.771 70.745 18.551 70.68 19.227 71.07C19.929 71.46 20.28 72.175 20.28 73.215V77.115L16.887 79.065V75.165L8.463 80.04V102.66L16.887 97.785V93.885L20.28 91.935V95.835C20.28 96.511 20.111 97.239 19.773 98.019C19.461 98.799 19.045 99.527 18.525 100.203C18.031 100.853 17.485 101.347 16.887 101.685L8.463 106.56C7.553 107.08 6.76 107.145 6.084 106.755C5.408 106.365 5.07 105.65 5.07 104.61V81.99C5.07 81.288 5.226 80.56 5.538 79.806C5.85 79.026 6.266 78.311 6.786 77.661C7.306 76.985 7.865 76.478 8.463 76.14ZM20.28 91.935L16.887 93.885L13.494 91.935L16.887 89.985L20.28 91.935ZM16.887 93.885V97.785L13.494 95.835V91.935L16.887 93.885ZM16.887 97.785L8.463 102.66L5.07 100.71L13.494 95.835L16.887 97.785ZM16.887 75.165V79.065L13.494 77.115V73.215L16.887 75.165ZM19.266 71.07C18.564 70.68 17.771 70.745 16.887 71.265L8.463 76.14C7.865 76.478 7.306 76.985 6.786 77.661C6.266 78.311 5.85 79.026 5.538 79.806C5.226 80.56 5.07 81.288 5.07 81.99V104.61C5.07 105.65 5.408 106.365 6.084 106.755L2.691 104.805C2.015 104.415 1.677 103.7 1.677 102.66V80.04C1.677 79.338 1.833 78.61 2.145 77.856C2.457 77.076 2.873 76.361 3.393 75.711C3.913 75.035 4.472 74.528 5.07 74.19L13.494 69.315C14.404 68.795 15.197 68.73 15.873 69.12L19.266 71.07ZM30.4386 76.14L38.8626 71.265C39.7466 70.745 40.5266 70.68 41.2026 71.07C41.9046 71.46 42.2556 72.175 42.2556 73.215V98.175L38.8626 100.125V92.325L30.4386 97.2V105L27.0456 106.95V81.99C27.0456 81.288 27.2016 80.56 27.5136 79.806C27.8256 79.026 28.2416 78.311 28.7616 77.661C29.2816 76.985 29.8406 76.478 30.4386 76.14ZM38.8626 88.425V75.165L30.4386 80.04V93.3L38.8626 88.425ZM38.8626 92.325V100.125L35.4696 98.175V90.375L38.8626 92.325ZM38.8626 75.165V88.425L35.4696 86.475V73.215L38.8626 75.165ZM38.8626 88.425L30.4386 93.3L27.0456 91.35L35.4696 86.475L38.8626 88.425ZM41.2416 71.07C40.5396 70.68 39.7466 70.745 38.8626 71.265L30.4386 76.14C29.8406 76.478 29.2816 76.985 28.7616 77.661C28.2416 78.311 27.8256 79.026 27.5136 79.806C27.2016 80.56 27.0456 81.288 27.0456 81.99V106.95L23.6526 105V80.04C23.6526 79.338 23.8086 78.61 24.1206 77.856C24.4326 77.076 24.8486 76.361 25.3686 75.711C25.8886 75.035 26.4476 74.528 27.0456 74.19L35.4696 69.315C36.3796 68.795 37.1726 68.73 37.8486 69.12L41.2416 71.07ZM52.4142 76.14L65.9082 68.34C66.7922 67.82 67.5722 67.755 68.2482 68.145C68.9502 68.535 69.3012 69.25 69.3012 70.29V95.25L65.9082 97.2V72.24L60.8382 75.165V100.125L57.4452 102.075V77.115L52.4142 80.04V105L49.0212 106.95V81.99C49.0212 81.288 49.1772 80.56 49.4892 79.806C49.8012 79.026 50.2172 78.311 50.7372 77.661C51.2572 76.985 51.8162 76.478 52.4142 76.14ZM65.9082 72.24V97.2L62.5152 95.25V70.29L65.9082 72.24ZM57.4452 77.115V102.075L54.0912 100.125V75.165L57.4452 77.115ZM68.2482 68.145C67.5722 67.755 66.7922 67.82 65.9082 68.34L52.4142 76.14C51.8162 76.478 51.2572 76.985 50.7372 77.661C50.2172 78.311 49.8012 79.026 49.4892 79.806C49.1772 80.56 49.0212 81.288 49.0212 81.99V106.95L45.6282 105V80.04C45.6282 79.338 45.7842 78.61 46.0962 77.856C46.4082 77.076 46.8242 76.361 47.3442 75.711C47.8642 75.035 48.4232 74.528 49.0212 74.19L62.5152 66.39C63.4252 65.87 64.2182 65.805 64.8942 66.195L68.2482 68.145ZM82.8092 95.25C81.9252 95.77 81.1452 95.835 80.4692 95.445C79.7932 95.055 79.4552 94.34 79.4552 93.3V105L76.0622 106.95V78.09L87.8792 71.265C88.7632 70.745 89.5432 70.68 90.2192 71.07C90.9212 71.46 91.2722 72.175 91.2722 73.215V86.475C91.2722 87.151 91.1032 87.879 90.7652 88.659C90.4532 89.439 90.0372 90.167 89.5172 90.843C89.0232 91.493 88.4772 91.987 87.8792 92.325L82.8092 95.25ZM87.8792 75.165L79.4552 80.04V93.3L87.8792 88.425V75.165ZM79.4552 93.3C79.4552 94.34 79.7932 95.055 80.4692 95.445L77.0762 93.495C76.4002 93.105 76.0622 92.39 76.0622 91.35L79.4552 93.3ZM87.8792 75.165V88.425L84.4862 86.475V73.215L87.8792 75.165ZM87.8792 88.425L79.4552 93.3L76.0622 91.35L84.4862 86.475L87.8792 88.425ZM90.2582 71.07C89.5562 70.68 88.7632 70.745 87.8792 71.265L76.0622 78.09L72.6692 76.14L84.4862 69.315C85.3962 68.795 86.1892 68.73 86.8652 69.12L90.2582 71.07ZM76.0622 78.09V106.95L72.6692 105V76.14L76.0622 78.09ZM101.431 76.14L109.855 71.265C110.739 70.745 111.519 70.68 112.195 71.07C112.897 71.46 113.248 72.175 113.248 73.215V95.835C113.248 96.511 113.079 97.239 112.741 98.019C112.429 98.799 112.013 99.527 111.493 100.203C110.999 100.853 110.453 101.347 109.855 101.685L101.431 106.56C100.521 107.08 99.7278 107.145 99.0518 106.755C98.3758 106.365 98.0378 105.65 98.0378 104.61V81.99C98.0378 81.288 98.1938 80.56 98.5058 79.806C98.8178 79.026 99.2338 78.311 99.7538 77.661C100.274 76.985 100.833 76.478 101.431 76.14ZM101.431 102.66L109.855 97.785V75.165L101.431 80.04V102.66ZM109.855 75.165V97.785L106.462 95.835V73.215L109.855 75.165ZM109.855 97.785L101.431 102.66L98.0378 100.71L106.462 95.835L109.855 97.785ZM112.234 71.07C111.532 70.68 110.739 70.745 109.855 71.265L101.431 76.14C100.833 76.478 100.274 76.985 99.7538 77.661C99.2338 78.311 98.8178 79.026 98.5058 79.806C98.1938 80.56 98.0378 81.288 98.0378 81.99V104.61C98.0378 105.65 98.3758 106.365 99.0518 106.755L95.6588 104.805C94.9828 104.415 94.6448 103.7 94.6448 102.66V80.04C94.6448 79.338 94.8008 78.61 95.1128 77.856C95.4248 77.076 95.8408 76.361 96.3608 75.711C96.8808 75.035 97.4398 74.528 98.0378 74.19L106.462 69.315C107.372 68.795 108.165 68.73 108.841 69.12L112.234 71.07ZM133.537 76.14L147.031 68.34C147.915 67.82 148.695 67.755 149.371 68.145C150.073 68.535 150.424 69.25 150.424 70.29V95.25L147.031 97.2V72.24L141.961 75.165V100.125L138.568 102.075V77.115L133.537 80.04V105L130.144 106.95V81.99C130.144 81.288 130.3 80.56 130.612 79.806C130.924 79.026 131.34 78.311 131.86 77.661C132.38 76.985 132.939 76.478 133.537 76.14ZM147.031 72.24V97.2L143.638 95.25V70.29L147.031 72.24ZM138.568 77.115V102.075L135.214 100.125V75.165L138.568 77.115ZM149.371 68.145C148.695 67.755 147.915 67.82 147.031 68.34L133.537 76.14C132.939 76.478 132.38 76.985 131.86 77.661C131.34 78.311 130.924 79.026 130.612 79.806C130.3 80.56 130.144 81.288 130.144 81.99V106.95L126.751 105V80.04C126.751 79.338 126.907 78.61 127.219 77.856C127.531 77.076 127.947 76.361 128.467 75.711C128.987 75.035 129.546 74.528 130.144 74.19L143.638 66.39C144.548 65.87 145.341 65.805 146.017 66.195L149.371 68.145ZM163.269 99.54V80.04L157.185 83.55V79.65L172.707 70.68V74.58L166.623 78.09V97.59L172.707 94.08V97.98L157.185 106.95V103.05L163.269 99.54ZM163.269 99.54L157.185 103.05L153.792 101.1L159.876 97.59L163.269 99.54ZM157.185 103.05V106.95L153.792 105V101.1L157.185 103.05ZM172.707 94.08L166.623 97.59L163.269 95.64L169.353 92.13L172.707 94.08ZM163.269 80.04V99.54L159.876 97.59V78.09L163.269 80.04ZM172.707 70.68L157.185 79.65L153.792 77.7L169.353 68.73L172.707 70.68ZM157.185 79.65V83.55L153.792 81.6V77.7L157.185 79.65ZM187.928 74.775C188.838 74.255 189.631 74.19 190.307 74.58C190.983 74.97 191.321 75.685 191.321 76.725V96.225L196.391 93.3V69.9L199.784 67.95V95.25L191.321 100.125C190.437 100.645 189.644 100.71 188.942 100.32C188.266 99.93 187.928 99.215 187.928 98.175V78.675L182.897 81.6V105L179.504 106.95V79.65L187.928 74.775ZM199.784 67.95L196.391 69.9L192.998 67.95L196.391 66L199.784 67.95ZM196.391 69.9V93.3L192.998 91.35V67.95L196.391 69.9ZM196.391 93.3L191.321 96.225L187.928 94.275L192.998 91.35L196.391 93.3ZM187.928 78.675V98.175C187.928 99.215 188.266 99.93 188.942 100.32L185.588 98.37C184.912 97.98 184.574 97.265 184.574 96.225V76.725L187.928 78.675ZM190.307 74.58C189.631 74.19 188.838 74.255 187.928 74.775L179.504 79.65L176.111 77.7L184.574 72.825C185.458 72.305 186.238 72.24 186.914 72.63L190.307 74.58ZM179.504 79.65V106.95L176.111 105V77.7L179.504 79.65ZM209.938 76.14L218.362 71.265C219.246 70.745 220.026 70.68 220.702 71.07C221.404 71.46 221.755 72.175 221.755 73.215V98.175L218.362 100.125V92.325L209.938 97.2V105L206.545 106.95V81.99C206.545 81.288 206.701 80.56 207.013 79.806C207.325 79.026 207.741 78.311 208.261 77.661C208.781 76.985 209.34 76.478 209.938 76.14ZM218.362 88.425V75.165L209.938 80.04V93.3L218.362 88.425ZM218.362 92.325V100.125L214.969 98.175V90.375L218.362 92.325ZM218.362 75.165V88.425L214.969 86.475V73.215L218.362 75.165ZM218.362 88.425L209.938 93.3L206.545 91.35L214.969 86.475L218.362 88.425ZM220.741 71.07C220.039 70.68 219.246 70.745 218.362 71.265L209.938 76.14C209.34 76.478 208.781 76.985 208.261 77.661C207.741 78.311 207.325 79.026 207.013 79.806C206.701 80.56 206.545 81.288 206.545 81.99V106.95L203.152 105V80.04C203.152 79.338 203.308 78.61 203.62 77.856C203.932 77.076 204.348 76.361 204.868 75.711C205.388 75.035 205.947 74.528 206.545 74.19L214.969 69.315C215.879 68.795 216.672 68.73 217.348 69.12L220.741 71.07ZM240.688 71.07C241.572 70.55 242.352 70.485 243.028 70.875C243.704 71.265 244.042 71.98 244.042 73.02V94.08C244.042 94.782 243.886 95.523 243.574 96.303C243.262 97.057 242.846 97.772 242.326 98.448C241.832 99.098 241.286 99.592 240.688 99.93L235.267 103.05C234.383 103.57 233.603 103.635 232.927 103.245C232.251 102.855 231.913 102.14 231.913 101.1L240.688 96.03V74.97L231.913 80.04V105L228.52 106.95V78.09L240.688 71.07ZM240.688 74.97V96.03L237.295 94.08V73.02L240.688 74.97ZM240.688 96.03L231.913 101.1L228.52 99.15L237.295 94.08L240.688 96.03ZM231.913 101.1C231.913 102.14 232.251 102.855 232.927 103.245L229.534 101.295C228.858 100.905 228.52 100.19 228.52 99.15L231.913 101.1ZM243.028 70.875C242.352 70.485 241.572 70.55 240.688 71.07L228.52 78.09L225.127 76.14L237.295 69.12C238.179 68.6 238.972 68.535 239.674 68.925L243.028 70.875ZM228.52 78.09V106.95L225.127 105V76.14L228.52 78.09ZM257.586 74.97C258.782 74.268 259.887 73.995 260.901 74.151C261.941 74.281 262.773 74.762 263.397 75.594C264.021 76.4 264.333 77.492 264.333 78.87V94.47C264.333 95.51 264.151 96.602 263.787 97.746C263.423 98.89 262.929 100.008 262.305 101.1C261.681 102.192 260.966 103.18 260.16 104.064C259.354 104.948 258.496 105.65 257.586 106.17C256.39 106.846 255.272 107.119 254.232 106.989C253.218 106.859 252.399 106.378 251.775 105.546C251.151 104.74 250.839 103.648 250.839 102.27V86.67C250.839 85.63 251.021 84.538 251.385 83.394C251.749 82.25 252.243 81.132 252.867 80.04C253.491 78.948 254.206 77.96 255.012 77.076C255.844 76.192 256.702 75.49 257.586 74.97ZM260.979 80.82C260.979 79.78 260.641 79.065 259.965 78.675C259.289 78.285 258.496 78.35 257.586 78.87C256.988 79.208 256.429 79.715 255.909 80.391C255.415 81.041 255.012 81.756 254.7 82.536C254.388 83.29 254.232 84.018 254.232 84.72V100.32C254.232 101.36 254.57 102.075 255.246 102.465C255.922 102.855 256.702 102.79 257.586 102.27C258.184 101.932 258.743 101.438 259.263 100.788C259.783 100.112 260.199 99.384 260.511 98.604C260.823 97.824 260.979 97.096 260.979 96.42V80.82ZM259.965 78.675C260.641 79.065 260.979 79.78 260.979 80.82V96.42C260.979 97.096 260.823 97.824 260.511 98.604C260.199 99.384 259.783 100.112 259.263 100.788C258.743 101.438 258.184 101.932 257.586 102.27C256.702 102.79 255.922 102.855 255.246 102.465L251.853 100.515C252.529 100.905 253.322 100.84 254.232 100.32C254.804 99.982 255.35 99.488 255.87 98.838C256.39 98.162 256.806 97.434 257.118 96.654C257.43 95.874 257.586 95.146 257.586 94.47V78.87C257.586 77.83 257.248 77.115 256.572 76.725L259.965 78.675ZM262.305 74.58C261.681 74.242 260.966 74.099 260.16 74.151C259.354 74.177 258.496 74.45 257.586 74.97C256.702 75.49 255.844 76.192 255.012 77.076C254.206 77.96 253.491 78.948 252.867 80.04C252.243 81.132 251.749 82.25 251.385 83.394C251.021 84.538 250.839 85.63 250.839 86.67V102.27C250.839 103.31 251.021 104.194 251.385 104.922C251.749 105.65 252.243 106.196 252.867 106.56L249.474 104.61C248.876 104.246 248.382 103.7 247.992 102.972C247.628 102.244 247.446 101.36 247.446 100.32V84.72C247.446 83.68 247.628 82.588 247.992 81.444C248.356 80.3 248.85 79.182 249.474 78.09C250.124 76.998 250.852 76.01 251.658 75.126C252.464 74.242 253.322 73.54 254.232 73.02C255.116 72.5 255.961 72.227 256.767 72.201C257.599 72.149 258.327 72.292 258.951 72.63L262.305 74.58Z" fill="#7066E0"/>
<path d="M149.855 19.607L145.387 24.0766L147.664 26.3544C148.472 27.1623 148.472 28.4688 147.664 29.2682L146.169 30.7638C147.183 33.0072 147.75 35.4999 147.75 38.1215C147.75 47.9977 139.749 56 129.875 56C120.001 56 112 48.0062 112 38.1301C112 28.254 120.001 20.2516 129.875 20.2516C132.496 20.2516 134.988 20.8189 137.231 21.8332L138.727 20.3376C139.534 19.5296 140.841 19.5296 141.64 20.3376L143.917 22.6154L148.386 18.1457L149.855 19.607ZM154.969 17.1573H152.906C152.339 17.1573 151.875 17.6214 151.875 18.1887C151.875 18.756 152.339 19.2202 152.906 19.2202H154.969C155.536 19.2202 156 18.756 156 18.1887C156 17.6214 155.536 17.1573 154.969 17.1573ZM149.812 12C149.245 12 148.781 12.4642 148.781 13.0315V15.0944C148.781 15.6617 149.245 16.1258 149.812 16.1258C150.38 16.1258 150.844 15.6617 150.844 15.0944V13.0315C150.844 12.4642 150.38 12 149.812 12ZM152.726 16.7275L154.187 15.2663C154.591 14.8623 154.591 14.209 154.187 13.805C153.783 13.4011 153.13 13.4011 152.726 13.805L151.265 15.2663C150.861 15.6702 150.861 16.3235 151.265 16.7275C151.677 17.1315 152.33 17.1315 152.726 16.7275ZM146.899 16.7275C147.303 17.1315 147.956 17.1315 148.36 16.7275C148.764 16.3235 148.764 15.6702 148.36 15.2663L146.899 13.805C146.495 13.4011 145.842 13.4011 145.438 13.805C145.034 14.209 145.034 14.8623 145.438 15.2663L146.899 16.7275ZM152.726 19.6499C152.322 19.2459 151.669 19.2459 151.265 19.6499C150.861 20.0539 150.861 20.7072 151.265 21.1112L152.726 22.5724C153.13 22.9764 153.783 22.9764 154.187 22.5724C154.591 22.1684 154.591 21.5151 154.187 21.1112L152.726 19.6499ZM121.625 35.3796C121.625 32.3454 124.091 29.8785 127.125 29.8785C127.881 29.8785 128.5 29.2596 128.5 28.5032C128.5 27.7468 127.881 27.128 127.125 27.128C122.579 27.128 118.875 30.8326 118.875 35.3796C118.875 36.136 119.494 36.7548 120.25 36.7548C121.006 36.7548 121.625 36.136 121.625 35.3796Z" fill="black"/>
</svg>
